<?xml version="1.0" encoding="utf-8"?>
<svg version="1.1" id="Layer_1"
xmlns="http://www.w3.org/2000/svg"
xmlns:xlink="http://www.w3.org/1999/xlink"
width="414px" height="163px"
xml:space="preserve">
<g id="PathID_1" transform="matrix(1.10869, 0, 0, 1.1697, 125.35, 108.95)" opacity="1">
<path style="fill:#120679;fill-opacity:1" d="M19.9 0.75Q11.55 0.75 6.6 -4.3Q1.7 -9.35 1.7 -18.55Q1.7 -27.4 6.6 -32.65Q11.55 -37.95 19.95 -37.95Q22.15 -37.95 23.9 -37.7Q25.7 -37.45 27.35 -37Q28.6 -36.6 30.1 -35.95L32.55 -34.85L32.55 -26L31.6 -26L29.85 -27.35Q28.85 -28.2 27.55 -29Q26.25 -29.75 24.7 -30.3Q23.15 -30.9 21.45 -30.9Q19.4 -30.9 17.7 -30.25Q16.05 -29.6 14.5 -28.05Q13.1 -26.6 12.2 -24.2Q11.35 -21.8 11.35 -18.5Q11.35 -15.05 12.25 -12.7Q13.2 -10.35 14.7 -8.9Q16.15 -7.5 17.9 -6.9Q19.7 -6.3 21.5 -6.3Q23.35 -6.3 25 -6.9Q26.7 -7.5 27.85 -8.2Q29.1 -9 30.05 -9.75L31.7 -11.2L32.55 -11.2L32.55 -2.45L30.15 -1.35Q28.8 -0.75 27.4 -0.3Q25.65 0.2 24.1 0.45Q22.6 0.75 19.9 0.75" />
</g>
<g id="PathID_2" transform="matrix(1.10869, 0, 0, 1.1697, 125.35, 108.95)" opacity="1">
</g>
<g id="PathID_3" transform="matrix(1.10869, 0, 0, 1.1697, 163.2, 108.95)" opacity="1">
<path style="fill:#120679;fill-opacity:1" d="M22.2 -19.8L21.45 -19.8Q20.95 -19.95 20 -20.05Q19.05 -20.15 17.9 -20.15Q16.55 -20.15 15 -19.75Q13.5 -19.35 12.1 -18.8L12.1 0L3.35 0L3.35 -28.1L12.1 -28.1L12.1 -24.05L13.75 -25.4Q14.8 -26.25 15.7 -26.75Q16.65 -27.35 17.9 -27.75Q19.15 -28.2 20.3 -28.2L21.2 -28.15L22.2 -28.1L22.2 -19.8" />
</g>
<g id="PathID_4" transform="matrix(1.10869, 0, 0, 1.1697, 163.2, 108.95)" opacity="1">
</g>
<g id="PathID_5" transform="matrix(1.10869, 0, 0, 1.1697, 187.8, 108.95)" opacity="1">
<path style="fill:#120679;fill-opacity:1" d="M17.7 0.75Q9.75 0.75 5.5 -3.05Q1.3 -6.85 1.3 -13.9Q1.3 -20.75 5.25 -24.85Q9.2 -29 16.3 -29Q22.75 -29 26 -25.5Q29.25 -22 29.25 -15.55L29.25 -12.4L10.05 -12.4Q10.15 -10.4 10.85 -9.05Q11.55 -7.75 12.7 -7Q13.85 -6.2 15.35 -5.85Q16.85 -5.55 18.6 -5.55Q20.15 -5.55 21.6 -5.85Q23.1 -6.2 24.3 -6.75Q25.4 -7.25 26.3 -7.8L27.8 -8.8L28.75 -8.8L28.75 -1.55L26.75 -0.75Q25.9 -0.4 24.35 -0.05Q22.9 0.35 21.4 0.55Q19.9 0.75 17.7 0.75M20.6 -17.7Q20.5 -20.45 19.3 -21.9Q18.1 -23.4 15.6 -23.4Q13.05 -23.4 11.6 -21.85Q10.15 -20.3 10 -17.7L20.6 -17.7" />
</g>
<g id="PathID_6" transform="matrix(1.10869, 0, 0, 1.1697, 187.8, 108.95)" opacity="1">
</g>
<g id="PathID_7" transform="matrix(1.10869, 0, 0, 1.1697, 221.5, 108.95)" opacity="1">
<path style="fill:#120679;fill-opacity:1" d="M20.15 -8.85L20.15 -21.55Q19.45 -21.85 18.5 -22.05Q17.55 -22.3 16.6 -22.3Q13.45 -22.3 11.85 -20.25Q10.3 -18.2 10.3 -14.55Q10.3 -12.7 10.5 -11.45Q10.75 -10.2 11.4 -9.2Q12.05 -8.25 13.05 -7.75Q14.05 -7.3 15.65 -7.3Q16.8 -7.3 17.95 -7.7Q19.1 -8.1 20.15 -8.85M28.9 -3.2Q28.9 0.7 27.75 3.4Q26.6 6.15 24.65 7.7Q22.7 9.25 19.95 9.9Q17.25 10.6 13.9 10.6Q11.1 10.6 8.6 10.25Q6.1 9.9 4.25 9.45L4.25 2.4L5.25 2.4L6.8 2.95L8.6 3.5L10.65 3.9Q11.7 4.05 12.8 4.05Q15.05 4.05 16.5 3.6Q18 3.15 18.75 2.3Q19.5 1.45 19.8 0.25Q20.15 -0.95 20.15 -2.75L20.15 -3.25Q18.65 -1.95 16.7 -1.15Q14.75 -0.4 12.7 -0.4Q7.2 -0.4 4.25 -3.95Q1.3 -7.5 1.3 -14.75Q1.3 -18.05 2.2 -20.65Q3.1 -23.3 4.75 -25.15Q6.3 -26.9 8.5 -27.85Q10.7 -28.85 13.1 -28.85Q15.25 -28.85 16.95 -28.3Q18.65 -27.75 20.1 -26.85L20.4 -28.1L28.9 -28.1L28.9 -3.2" />
</g>
<g id="PathID_8" transform="matrix(1.10869, 0, 0, 1.1697, 221.5, 108.95)" opacity="1">
</g>
<g id="PathID_9" transform="matrix(1.10869, 0, 0, 1.1697, 257.15, 108.95)" opacity="1">
<path style="fill:#120679;fill-opacity:1" d="M12.1 0L3.35 0L3.35 -28.1L12.1 -28.1L12.1 0M12.35 -32.1L3.1 -32.1L3.1 -38.95L12.35 -38.95L12.35 -32.1" />
</g>
<g id="PathID_10" transform="matrix(1.10869, 0, 0, 1.1697, 257.15, 108.95)" opacity="1">
</g>
<g id="PathID_11" transform="matrix(1.10869, 0, 0, 1.1697, 274.2, 108.15)" opacity="1">
<path style="fill:#120679;fill-opacity:1" d="M11.85 0.55Q8 0.55 5.85 -1.6Q3.7 -3.8 3.7 -8.5L3.7 -24L0.55 -24L0.55 -27.95L3.7 -27.95L3.7 -36L8.4 -36L8.4 -27.95L17.1 -27.95L17.1 -24L8.4 -24L8.4 -10.7L8.45 -7.45Q8.55 -6.3 9.05 -5.3Q9.45 -4.4 10.4 -3.95Q11.35 -3.55 13 -3.55Q14.15 -3.55 15.2 -3.85Q16.3 -4.2 16.8 -4.45L17.1 -4.45L17.1 -0.2Q15.75 0.15 14.35 0.35Q13 0.55 11.85 0.55" />
</g>
<g id="PathID_12" transform="matrix(1.10869, 0, 0, 1.1697, 274.2, 108.15)" opacity="1">
</g>
<g id="PathID_13" transform="matrix(1.10869, 0, 0, 1.1697, 293.1, 108.15)" opacity="1">
<path style="fill:#120679;fill-opacity:1" d="M15.5 0.65Q8.8 0.65 5.1 -3.1Q1.45 -6.85 1.45 -13.8Q1.45 -20.65 5 -24.7Q8.6 -28.75 14.35 -28.75Q16.95 -28.75 18.95 -27.95Q20.95 -27.2 22.45 -25.6Q23.95 -24 24.75 -21.7Q25.6 -19.4 25.6 -16.05L25.6 -13.5L6.25 -13.5Q6.25 -8.6 8.7 -6Q11.15 -3.45 15.45 -3.45Q17 -3.45 18.5 -3.8Q20 -4.15 21.2 -4.7Q22.45 -5.25 23.3 -5.8Q24.2 -6.35 24.8 -6.85L25.1 -6.85L25.1 -1.7L23 -0.85L20.8 -0.1Q19.45 0.25 18.3 0.45Q17.2 0.65 15.5 0.65M21 -17.1Q20.95 -19 20.55 -20.35Q20.15 -21.75 19.4 -22.7Q18.55 -23.75 17.25 -24.3Q16 -24.85 14.1 -24.85Q12.2 -24.85 10.9 -24.25Q9.6 -23.7 8.5 -22.65Q7.45 -21.55 6.9 -20.2Q6.4 -18.85 6.25 -17.1L21 -17.1" />
</g>
<g id="PathID_14" transform="matrix(1.10869, 0, 0, 1.1697, 293.1, 108.15)" opacity="1">
</g>
<g id="PathID_15" transform="matrix(1.10869, 0, 0, 1.1697, 322.9, 108.15)" opacity="1">
<path style="fill:#120679;fill-opacity:1" d="M14.5 0.65Q11.6 0.65 9.2 -0.2Q6.8 -1.1 5.05 -2.9Q3.35 -4.7 2.4 -7.45Q1.45 -10.2 1.45 -13.9Q1.45 -17.6 2.4 -20.25Q3.4 -22.95 5.05 -24.75Q6.7 -26.6 9.15 -27.6Q11.65 -28.6 14.5 -28.6Q16.8 -28.6 18.95 -27.95Q21.1 -27.3 22.8 -26.45L22.8 -21.2L22.5 -21.2L21.2 -22.15Q20.4 -22.7 19.3 -23.25Q18.3 -23.75 16.95 -24.1Q15.65 -24.5 14.4 -24.5Q10.75 -24.5 8.5 -21.7Q6.3 -18.95 6.3 -13.9Q6.3 -8.95 8.45 -6.2Q10.6 -3.45 14.4 -3.45Q16.7 -3.45 18.8 -4.4Q20.9 -5.35 22.5 -6.85L22.8 -6.85L22.8 -1.55L21 -0.75Q19.95 -0.3 19.1 -0.05Q17.9 0.3 16.95 0.45Q16 0.65 14.5 0.65" />
</g>
<g id="PathID_16" transform="matrix(1.10869, 0, 0, 1.1697, 322.9, 108.15)" opacity="1">
</g>
<g id="PathID_17" transform="matrix(1.10869, 0, 0, 1.1697, 349.15, 108.15)" opacity="1">
<path style="fill:#120679;fill-opacity:1" d="M25.35 0L20.65 0L20.65 -15.9Q20.65 -17.8 20.45 -19.45Q20.25 -21.15 19.75 -22.15Q19.15 -23.2 18.1 -23.7Q17.1 -24.25 15.35 -24.25Q13.6 -24.25 11.7 -23.3Q9.85 -22.35 8.1 -20.85L8.1 0L3.4 0L3.4 -38.9L8.1 -38.9L8.1 -24.85Q10.2 -26.7 12.25 -27.7Q14.3 -28.75 16.55 -28.75Q20.7 -28.75 23 -26Q25.35 -23.3 25.35 -18.15L25.35 0" />
</g>
<g id="PathID_18" transform="matrix(1.10869, 0, 0, 1.1697, 349.15, 108.15)" opacity="1">
</g>
<filter id="filter9" x="-0.589048" y="-0.589048" width="2.37399" height="2.36672" >
<feFlood result="black"></feFlood>
<feComponentTransfer in="SourceGraphic">
	<feFuncR type="linear" slope="0"/>
	<feFuncG type="linear" slope="0"/>
	<feFuncB type="linear" slope="0"/>
</feComponentTransfer>
<feGaussianBlur stdDeviation="4 4" />
<feComposite  in2="black" operator="arithmetic" k2="-1" k3="1"/>
<feComponentTransfer result="1">
	<feFuncR type="linear" Ue="0" intercept="0.0666667"/>
	<feFuncG type="linear" Ue="0" intercept="0"/>
	<feFuncB type="linear" Ue="0" intercept="0.6"/>
	<feFuncA type="linear" xh="0" slope="1"/>
</feComponentTransfer>
<feComposite result="2"  in="1" in2="SourceGraphic" operator="atop"/>
<feComponentTransfer in="2">
	<feFuncR type="linear" slope="0"/>
	<feFuncG type="linear" slope="0"/>
	<feFuncB type="linear" slope="0"/>
</feComponentTransfer>
<feGaussianBlur stdDeviation="0 0" />
<feOffset result="3" dx="-1.41423" dy="-1.4142"/>
<feComponentTransfer in="2">
	<feFuncR type="linear" slope="0"/>
	<feFuncG type="linear" slope="0"/>
	<feFuncB type="linear" slope="0"/>
</feComponentTransfer>
<feGaussianBlur stdDeviation="0 0" />
<feOffset result="4" dx="1.41423" dy="1.4142"/>
<feComposite  in="3" in2="4" operator="arithmetic" k2="1" k3="-1"/>
<feComponentTransfer result="5">
	<feFuncR type="linear" Ue="0" intercept="0.329412"/>
	<feFuncG type="linear" Ue="0" intercept="0.27451"/>
	<feFuncB type="linear" Ue="0" intercept="0.74902"/>
	<feFuncA type="linear" xh="0" slope="1"/>
</feComponentTransfer>
<feComposite  in="4" in2="3" operator="arithmetic" k2="1" k3="-1"/>
<feComponentTransfer result="6">
	<feFuncR type="linear" Ue="0" intercept="0.00784314"/>
	<feFuncG type="linear" Ue="0" intercept="0"/>
	<feFuncB type="linear" Ue="0" intercept="0.0509804"/>
	<feFuncA type="linear" xh="0" slope="1"/>
</feComponentTransfer>
<feComposite result="7"  in="5" in2="6" operator="arithmetic" k2="1" k3="1"/>
<feComposite result="8"  in="2" in2="7" operator="over"/>
</filter>
<g style="filter:url(#filter9);">
<g id="PathID_19" transform="matrix(3.18567, 0.0526408, 0, 2.74263, 24.45, 134)" opacity="1">
<path style="fill:#150873;fill-opacity:1" d="M10.65 -27.9Q6.45 -24.25 6.45 -17.95Q6.45 -11.6 10.65 -7.95Q14.45 -4.6 20.85 -4.3Q21.5 -4.35 21.8 -4.85Q22.1 -5.4 22.3 -6.05Q22.45 -6.7 22.7 -7.25Q22.95 -7.85 23.6 -7.95L23.8 -7.9L23.85 -7.7L23.85 0L22.5 0Q18.55 0 15.5 -0.65Q12.45 -1.25 10.4 -2.5Q6.1 -5.15 3.85 -9.05Q1.6 -13 1.6 -17.95Q1.6 -22.85 3.85 -26.75Q6.1 -30.65 10.4 -33.3Q12.45 -34.5 15.5 -35.15Q18.55 -35.8 22.5 -35.8L23.85 -35.8L23.85 -32L23.85 -30.6L23.9 -29.35L23.9 -28.5L23.9 -28.15Q23.9 -28 23.8 -27.95L23.6 -27.9Q23.2 -28 22.95 -28.3Q22.7 -28.6 22.55 -29L22.25 -29.85L22 -30.7L21.6 -31.3Q21.35 -31.55 21 -31.55Q14.55 -31.3 10.65 -27.9" />
</g>
<g id="PathID_20" transform="matrix(3.18567, 0.0526408, 0, 2.74263, 24.45, 134)" opacity="1">
</g>
</g>
<filter id="filter18" x="-0.589048" y="-0.589048" width="2.37131" height="2.36387" >
<feFlood result="black"></feFlood>
<feComponentTransfer in="SourceGraphic">
	<feFuncR type="linear" slope="0"/>
	<feFuncG type="linear" slope="0"/>
	<feFuncB type="linear" slope="0"/>
</feComponentTransfer>
<feGaussianBlur stdDeviation="4 4" />
<feComposite  in2="black" operator="arithmetic" k2="-1" k3="1"/>
<feComponentTransfer result="10">
	<feFuncR type="linear" Ue="0" intercept="0.0666667"/>
	<feFuncG type="linear" Ue="0" intercept="0"/>
	<feFuncB type="linear" Ue="0" intercept="0.6"/>
	<feFuncA type="linear" xh="0" slope="1"/>
</feComponentTransfer>
<feComposite result="11"  in="10" in2="SourceGraphic" operator="atop"/>
<feComponentTransfer in="11">
	<feFuncR type="linear" slope="0"/>
	<feFuncG type="linear" slope="0"/>
	<feFuncB type="linear" slope="0"/>
</feComponentTransfer>
<feGaussianBlur stdDeviation="0 0" />
<feOffset result="12" dx="-1.41423" dy="-1.4142"/>
<feComponentTransfer in="11">
	<feFuncR type="linear" slope="0"/>
	<feFuncG type="linear" slope="0"/>
	<feFuncB type="linear" slope="0"/>
</feComponentTransfer>
<feGaussianBlur stdDeviation="0 0" />
<feOffset result="13" dx="1.41423" dy="1.4142"/>
<feComposite  in="12" in2="13" operator="arithmetic" k2="1" k3="-1"/>
<feComponentTransfer result="14">
	<feFuncR type="linear" Ue="0" intercept="0.329412"/>
	<feFuncG type="linear" Ue="0" intercept="0.27451"/>
	<feFuncB type="linear" Ue="0" intercept="0.74902"/>
	<feFuncA type="linear" xh="0" slope="1"/>
</feComponentTransfer>
<feComposite  in="13" in2="12" operator="arithmetic" k2="1" k3="-1"/>
<feComponentTransfer result="15">
	<feFuncR type="linear" Ue="0" intercept="0.00784314"/>
	<feFuncG type="linear" Ue="0" intercept="0"/>
	<feFuncB type="linear" Ue="0" intercept="0.0509804"/>
	<feFuncA type="linear" xh="0" slope="1"/>
</feComponentTransfer>
<feComposite result="16"  in="14" in2="15" operator="arithmetic" k2="1" k3="1"/>
<feComposite result="17"  in="11" in2="16" operator="over"/>
</filter>
<g style="filter:url(#filter18);">
<g id="PathID_21" transform="matrix(2.03518, -0.0537615, -0.83706, 4.05878, 39.45, 156.35)" opacity="1">
<path style="fill:#150873;fill-opacity:1" d="M27.2 -35.85Q28.2 -35.85 28.55 -35.7Q28.85 -35.5 28.75 -35.2Q28.65 -34.85 28.2 -34.4L27.1 -33.4Q25.95 -32.45 24.7 -31.9Q23.4 -31.4 22.25 -31.45L14.85 -31.45L14.85 -5.15Q14.9 -3.9 15.2 -3.25Q15.45 -2.55 15.8 -2.2Q16.15 -1.85 16.6 -1.7Q17 -1.6 17.35 -1.4Q17.65 -1.25 17.9 -0.95Q18.1 -0.7 18.05 0L13.15 0L10.25 0L9.1 0L8.1 0L7.3 -0.05L6.9 -0.05Q6.85 -0.7 7.05 -1Q7.25 -1.3 7.6 -1.45L8.35 -1.7Q8.75 -1.85 9.1 -2.2Q9.5 -2.55 9.75 -3.2Q10.05 -3.85 10.1 -5.05L10.1 -31.45L6.2 -31.45L-1.95 -31.45Q-3 -31.45 -3.35 -31.6Q-3.7 -31.8 -3.55 -32.1Q-3.45 -32.45 -3 -32.9L-1.85 -33.9Q-0.75 -34.85 0.55 -35.4Q1.8 -35.9 2.95 -35.85L4.7 -35.85L7.75 -35.85L11.65 -35.85L15.95 -35.85L27.2 -35.85" />
</g>
<g id="PathID_22" transform="matrix(2.03518, -0.0537615, -0.83706, 4.05878, 39.45, 156.35)" opacity="1">
</g>
</g>
<g id="PathID_23" transform="matrix(1.05135, 0, 0, 1.07217, -33.6, 91.75)" opacity="1">
</g>
<g id="PathID_24" transform="matrix(1.05135, 0, 0, 1.07217, -33.6, 91.75)" opacity="1">
<path style="fill:none;stroke-width:0.7;stroke-linecap:round;stroke-linejoin:round;stroke-miterlimit:3;stroke:#150873;stroke-opacity:1" d="M0.3 0L-0.25 0" />
</g>
</svg>
